<svg version="1.1" xmlns="http://www.w3.org/2000/svg" xmlns:xlink="http://www.w3.org/1999/xlink" x="0px" y="0px"
    viewBox="0 0 480 100" xml:space="preserve">
<style type="text/css">
    .st0 { fill: #fff; }
</style>
<path class="st0" d="M87.3,74.1L87.3,74.1v-48V26c0-0.1,0-0.2,0-0.4v-0.1c0-0.1-0.1-0.3-0.2-0.4
    c-0.1-0.1-0.2-0.3-0.3-0.4l-0.1-0.1c-0.1-0.1-0.2-0.2-0.3-0.2c0,0,0,0-0.1,0l-41.6-24c0,0,0,0-0.1,0c-0.1-0.1-0.2-0.1-0.3-0.1h-0.1
    C43.9,0,43.8,0,43.6,0c-0.2,0-0.3,0-0.5,0.1H43c-0.1,0-0.2,0.1-0.3,0.1c0,0,0,0-0.1,0L1,24.2c0,0,0,0-0.1,0
    c-0.1,0.1-0.2,0.1-0.3,0.2l-0.1,0.1c-0.1,0.1-0.2,0.2-0.3,0.4l0,0c-0.1,0.1-0.1,0.3-0.2,0.4v0.1c0,0.1,0,0.2,0,0.4V26v48v0.1
    c0,0.1,0,0.2,0,0.4v0.1c0,0.1,0.1,0.3,0.2,0.4c0.1,0.2,0.2,0.3,0.3,0.4c0.1,0.1,0.2,0.1,0.2,0.2c0.1,0,0.1,0.1,0.2,0.1l41.6,24h0.1
    c0.1,0.1,0.2,0.1,0.3,0.1H43c0.2,0,0.3,0.1,0.5,0.1c0.2,0,0.3,0,0.5-0.1h0.1c0.1,0,0.2-0.1,0.3-0.1h0.1l41.7-23.9
    c0.1,0,0.1-0.1,0.2-0.1c0.1-0.1,0.2-0.1,0.2-0.2c0.1-0.1,0.2-0.3,0.3-0.4l0,0c0.1-0.1,0.1-0.3,0.2-0.4v-0.1
    C87.3,74.4,87.3,74.2,87.3,74.1z M4.1,29.6l14.7,8.5V62L4.1,70.5C4.1,70.5,4.1,29.6,4.1,29.6z M22.9,40.5l18.7,10.8v21.6L22.9,62
    V40.5z M43.6,26.1l18.7,10.8L43.6,47.6L24.9,36.9L43.6,26.1z M45.7,51.2l18.7-10.8V62L45.7,72.8V51.2z M66.4,34.5L45.7,22.6V5.6
    l35.4,20.4L66.4,34.5z M41.6,22.6L20.8,34.5L6.2,26.1L41.6,5.6V22.6z M20.8,65.6l20.7,12v16.9L6.2,74L20.8,65.6z M45.7,77.5l20.7-12
    L81.1,74L45.7,94.6V77.5z M68.5,62V38.1l14.7-8.5v40.9L68.5,62z"/>
<g>
    <path class="st0" d="M219.5,46.4V74h-11.2V47.9c0-8.5-4-12.7-10.8-12.7c-7.4,0-12.5,4.9-12.5,14.4V74h-11.2V47.9
        c0-8.5-4-12.7-10.8-12.7c-7.5,0-12.5,4.9-12.5,14.4V74h-11.2v-48h10.7v6.1c3.6-4.3,9.2-6.7,15.7-6.7c7,0,12.9,2.6,16.2,8
        c3.9-4.9,10.3-8,18-8C211.4,25.4,219.5,32,219.5,46.4z"/>
    <path class="st0" d="M279.3,53.6h-37.7c1.3,7,7.2,11.5,15.6,11.5c5.4,0,9.6-1.7,13-5.2l6,6.9c-4.3,5.1-11.1,7.8-19.3,7.8
        c-16.1,0-26.5-10.3-26.5-24.6c0-14.3,10.5-24.5,24.8-24.5c14,0,24.3,9.8,24.3,24.8C279.5,51.1,279.4,52.5,279.3,53.6z M241.5,46.1
        h27.2c-0.9-6.9-6.2-11.7-13.6-11.7C247.9,34.4,242.6,39.1,241.5,46.1z"/>
    <path class="st0" d="M318.1,25.4v10.7c-1-0.2-1.8-0.3-2.6-0.3c-8.5,0-13.9,5-13.9,14.8V74h-11.2v-48H301v7
        C304.2,27.9,310.1,25.4,318.1,25.4z"/>
    <path class="st0" d="M372.1,53.6h-37.7c1.3,7,7.2,11.5,15.6,11.5c5.4,0,9.6-1.7,13-5.2l6,6.9c-4.3,5.1-11.1,7.8-19.3,7.8
        c-16.1,0-26.5-10.3-26.5-24.6c0-14.3,10.5-24.5,24.8-24.5c14,0,24.3,9.8,24.3,24.8C372.3,51.1,372.2,52.5,372.1,53.6z M334.3,46.1
        h27.2c-0.9-6.9-6.2-11.7-13.6-11.7C340.7,34.4,335.4,39.1,334.3,46.1z"/>
    <path class="st0" d="M427.1,25.9l-20.6,48h-11.6l-20.6-48H386L401,61.6l15.4-35.6H427.1z"/>
    <path class="st0" d="M428.8,50c0-14.4,10.8-24.5,25.5-24.5c14.9,0,25.6,10.2,25.6,24.5c0,14.4-10.7,24.6-25.6,24.6
        C439.6,74.6,428.8,64.3,428.8,50z M468.7,50c0-9.2-6.1-15-14.3-15c-8.1,0-14.2,5.8-14.2,15s6.1,15,14.2,15
        C462.6,65,468.7,59.1,468.7,50z"/>
</g>
</svg>
