<svg id="e6a5b94a-5e94-4bf7-af08-3238e413146a" data-name="Calque 1" xmlns="http://www.w3.org/2000/svg" viewBox="0 0 32 43">
  <defs>
    <style>
      .b5c571d0-6cf5-442b-abb3-fec797c34fd4 {
        fill: #eee;
      }

      .fe328d28-2cf8-41a6-9b61-10128f0f2802 {
        fill: #697d8b;
        fill-rule: evenodd;
      }

      .a72994a6-3ddd-4891-8726-d7d5c528a3eb {
        fill: #fff;
      }
    </style>
  </defs>
  <title>marker-default</title>
  <g id="f0d58b01-b633-45ad-8619-cbc0366dd11c" data-name="default">
    <path class="b5c571d0-6cf5-442b-abb3-fec797c34fd4" d="M31.5,15.24c0,10.83-14.52,26.33-15.14,27l-.36.38-.36-.38C15,41.57.5,26.07.5,15.24.5,7.05,7.45.39,16,.39S31.5,7.05,31.5,15.24Z"/>
    <path class="fe328d28-2cf8-41a6-9b61-10128f0f2802" d="M30.5,15.24c0,9.51-12.22,23.4-14.5,25.91C13.72,38.64,1.5,24.75,1.5,15.24,1.5,7.6,8,1.39,16,1.39S30.5,7.6,30.5,15.24Z"/>
    <g>
      <rect class="a72994a6-3ddd-4891-8726-d7d5c528a3eb" x="11.47" y="17.07" width="4.39" height="2.93"/>
      <path class="a72994a6-3ddd-4891-8726-d7d5c528a3eb" d="M16,4.89h0a11,11,0,0,0-11,11H5a11,11,0,0,0,11,11h0a11,11,0,0,0,11-11h0A11,11,0,0,0,16,4.89ZM10.74,9.75H21a.73.73,0,0,1,0,1.46H10.74a.73.73,0,1,1,0-1.46Zm11.7,7.32h-.73v4.38H20.25V17.07H17.32v4.38H10V17.07H9.27V15.6l.67-3.32a.41.41,0,0,1,.4-.33h11a.39.39,0,0,1,.4.33l.67,3.32Z"/>
    </g>
  </g>
</svg>
