<svg id="b191d5d6-732b-4b6f-b267-67e6069d2bcc" data-name="Calque 1" xmlns="http://www.w3.org/2000/svg" viewBox="0 0 32 43">
  <defs>
    <style>
      .a4d2cb22-10ed-4114-b64a-7cb475322782, .b445ef46-6459-4c8a-a22e-0cb8dfa89485 {
        fill: #333;
      }

      .a4d2cb22-10ed-4114-b64a-7cb475322782 {
        fill-rule: evenodd;
      }

      .b3f77bf5-d79e-4eba-af84-4008fd2fcc67 {
        fill: #fff;
      }
    </style>
  </defs>
  <title>marker-location</title>
  <g id="a64e28e1-391c-482c-be22-f6717a8420c3" data-name="location">
    <path class="b445ef46-6459-4c8a-a22e-0cb8dfa89485" d="M31.5,15.24c0,10.83-14.52,26.33-15.14,27l-.36.38-.36-.38C15,41.57.5,26.07.5,15.24.5,7.05,7.45.39,16,.39S31.5,7.05,31.5,15.24Z"/>
    <path class="a4d2cb22-10ed-4114-b64a-7cb475322782" d="M30.5,15.24c0,9.51-12.22,23.4-14.5,25.91C13.72,38.64,1.5,24.75,1.5,15.24,1.5,7.6,8,1.39,16,1.39S30.5,7.6,30.5,15.24Z"/>
    <path class="b3f77bf5-d79e-4eba-af84-4008fd2fcc67" d="M11.63,20.36V12.21a.44.44,0,0,1,.2-.39C14.59,9.91,17.29,8,20.05,6c.06-.06.14-.06.26-.13,0,.13.06.2.06.33V25.56c0,.2,0,.33-.26.33H11.63L20.19,6.16h-.08l-8.42,14.2Z"/>
  </g>
</svg>
